<?xml version="1.0" encoding="utf-8"?>
<!-- Generator: Adobe Illustrator 22.1.0, SVG Export Plug-In . SVG Version: 6.00 Build 0)  -->
<svg version="1.1" id="Layer_1" xmlns="http://www.w3.org/2000/svg" xmlns:xlink="http://www.w3.org/1999/xlink" x="0px" y="0px"
	 viewBox="0 0 202.3 46.8" style="enable-background:new 0 0 202.3 46.8;" xml:space="preserve">
<style type="text/css">
	.st0{fill:#4CAF50;}
	.st1{fill:#FFFFFF;}
	.st2{fill:#2196F3;}
</style>
<path id="_Path_" class="st0" d="M23.2,0.4c-12.7,0-23.1,10.3-23.1,23s10.3,23.1,23,23.1s23.1-10.3,23.1-23v-0.1
	C46.2,10.7,36,0.4,23.2,0.4z"/>
<polygon class="st1" points="27.1,15.3 23.2,27.6 19.1,15.3 16.1,15.3 22,31.6 22,31.7 24.3,31.7 30.1,15.3 "/>
<path id="_Path_2" class="st2" d="M75.1,0.4C62.4,0.4,52,10.7,52,23.4s10.3,23.1,23,23.1s23.1-10.3,23.1-23c0,0,0,0,0-0.1l0,0
	C98.1,10.8,87.9,0.4,75.1,0.4z"/>
<path class="st1" d="M78.7,29.7c-0.4,0.1-0.9,0.2-1.3,0.2c-0.5,0-1-0.1-1.4-0.5c-0.3-0.4-0.4-1-0.4-1.5V17.6h3.1v-2.4h-3.1v-4.1h-3
	v4.1h-3.1v2.4h3.1v10.3c-0.1,1.2,0.3,2.4,1,3.4c0.8,0.8,1.9,1.3,3,1.2c0.8,0,1.5-0.1,2.2-0.3h0.1v-2.6L78.7,29.7z"/>
<path id="_Path_3" class="st2" d="M178.8,0.4c-12.7,0-23.1,10.3-23.1,23.1s10.3,23.1,23.1,23.1s23.1-10.3,23.1-23.1l0,0l0,0
	c0-12.7-10.2-23-22.9-23.1l0,0C179,0.4,178.8,0.4,178.8,0.4z"/>
<path class="st1" d="M183,26.1L183,26.1c-0.1,0.9-0.5,1.7-1.2,2.3c-0.7,0.6-1.6,0.9-2.5,0.9c-1.3,0.1-2.5-0.5-3.2-1.5
	c-0.8-1.3-1.2-2.7-1.2-4.2v-0.5c-0.1-1.5,0.3-3.1,1.2-4.4c0.8-1,2-1.6,3.2-1.5c1,0,1.9,0.3,2.6,1c0.7,0.7,1.1,1.6,1.1,2.5v0.1h2.8
	v-0.1c0-1.6-0.7-3.2-1.9-4.3c-1.3-1.1-2.9-1.7-4.6-1.7c-1.4,0-2.7,0.3-3.9,1c-1.1,0.7-2,1.7-2.6,2.9c-0.6,1.3-0.9,2.8-0.9,4.3v0.5
	c-0.1,2.2,0.6,4.4,2,6.1c2.2,2.3,5.6,2.9,8.5,1.5c1-0.5,1.8-1.1,2.4-2c0.6-0.8,1-1.7,1-2.7v-0.1L183,26.1z"/>
<g id="_Group_">
	<path id="_Path_4" class="st2" d="M126.9,0.4c-12.7,0-23.1,10.3-23.1,23.1c0,12.7,10.3,23.1,23.1,23.1S150,36.3,150,23.5l0,0
		c0-12.7-10.2-23-22.9-23.1l0,0C127.1,0.4,126.9,0.4,126.9,0.4z"/>
</g>
<path class="st1" d="M126.9,14.1c-5,0-9,4-9,9s4,9,9,9c5,0,9-4,9-9l0,0C135.9,18.1,131.9,14.1,126.9,14.1z M133.1,23
	c0,3.4-2.8,6.2-6.2,6.2s-6.2-2.8-6.2-6.2s2.8-6.2,6.2-6.2l0,0C130.3,16.7,133.1,19.5,133.1,23z"/>
</svg>
